<svg width="344" height="279" viewBox="0 0 344 279" fill="none" xmlns="http://www.w3.org/2000/svg">
<path d="M133.456 0V21.0245L256.123 106.71L257.171 205L305.923 171.886V104.597H329L133.456 0Z" fill="white"/>
<path d="M146.026 105.134H113V138.247H146.026V105.134Z" fill="white"/>
<path d="M199.507 105.134H166.481V138.247H199.507V105.134Z" fill="white"/>
<path d="M199.507 156.644H166.481V189.757H199.507V156.644Z" fill="white"/>
<path d="M146.026 156.644H113V189.757H146.026V156.644Z" fill="white"/>
<path d="M69.0272 106C69.0272 106 44.2514 137.072 40.5042 167.864C39.5245 176.631 40.9853 185.499 44.7246 193.485C48.4639 201.471 54.3358 208.263 61.6895 213.109C108.434 244.282 223.566 270.454 344 149.732C313.195 188.9 213.969 309.678 58.222 271.709C49.6317 269.617 41.4041 266.242 33.8153 261.696C-51.9102 210.126 50.1349 123.268 69.0272 106Z" fill="#4BB8E0"/>
</svg>
