<svg width="273" height="61" viewBox="0 0 273 61" fill="none" xmlns="http://www.w3.org/2000/svg">
<path d="M29.0353 0V4.58372L55.8558 23.2648L56.0851 44.6937L66.7445 37.4744V22.804H71.7902L29.0353 0Z" fill="#58595B"/>
<path d="M31.7837 22.9211H24.5627V30.1404H31.7837V22.9211Z" fill="#58595B"/>
<path d="M43.4771 22.9211H36.2562V30.1404H43.4771V22.9211Z" fill="#58595B"/>
<path d="M43.4771 34.1512H36.2562V41.3705H43.4771V34.1512Z" fill="#58595B"/>
<path d="M31.7837 34.1512H24.5627V41.3705H31.7837V34.1512Z" fill="#58595B"/>
<path d="M15.0494 23.0356C15.0494 23.0356 9.64775 29.7918 8.8308 36.4869C8.6172 38.3932 8.93567 40.3214 9.75093 42.0579C10.5662 43.7943 11.8464 45.2712 13.4497 46.3249C23.6409 53.1029 48.7422 58.7936 74.9994 32.5444C68.2833 41.0609 46.6498 67.3222 12.6937 59.0666C10.8208 58.6117 9.02699 57.8777 7.37247 56.8894C-11.3176 45.6763 10.9305 26.7904 15.0494 23.0356Z" fill="#4BB8E0"/>
<path d="M106.72 22.2L99.52 39H94.84L87.664 22.2H92.8L97.36 33.144L102.016 22.2H106.72ZM106.847 30.408H113.855V33.912H106.847V30.408ZM116.68 22.2H121.432V39H116.68V22.2ZM140.797 22.2V39H136.045V32.448H129.565V39H124.813V22.2H129.565V28.512H136.045V22.2H140.797ZM157.037 39.336C155.677 39.336 154.357 39.168 153.077 38.832C151.797 38.496 150.757 38.048 149.957 37.488L151.517 33.984C152.269 34.48 153.141 34.88 154.133 35.184C155.125 35.488 156.101 35.64 157.061 35.64C158.885 35.64 159.797 35.184 159.797 34.272C159.797 33.792 159.533 33.44 159.005 33.216C158.493 32.976 157.661 32.728 156.509 32.472C155.245 32.2 154.189 31.912 153.341 31.608C152.493 31.288 151.765 30.784 151.157 30.096C150.549 29.408 150.245 28.48 150.245 27.312C150.245 26.288 150.525 25.368 151.085 24.552C151.645 23.72 152.477 23.064 153.581 22.584C154.701 22.104 156.069 21.864 157.685 21.864C158.789 21.864 159.877 21.992 160.949 22.248C162.021 22.488 162.965 22.848 163.781 23.328L162.317 26.856C160.717 25.992 159.165 25.56 157.661 25.56C156.717 25.56 156.029 25.704 155.597 25.992C155.165 26.264 154.949 26.624 154.949 27.072C154.949 27.52 155.205 27.856 155.717 28.08C156.229 28.304 157.053 28.536 158.189 28.776C159.469 29.048 160.525 29.344 161.357 29.664C162.205 29.968 162.933 30.464 163.541 31.152C164.165 31.824 164.477 32.744 164.477 33.912C164.477 34.92 164.197 35.832 163.637 36.648C163.077 37.464 162.237 38.12 161.117 38.616C159.997 39.096 158.637 39.336 157.037 39.336ZM172.984 39.216C171.592 39.216 170.336 38.928 169.216 38.352C168.096 37.776 167.216 36.976 166.576 35.952C165.952 34.928 165.64 33.768 165.64 32.472C165.64 31.192 165.952 30.04 166.576 29.016C167.216 27.992 168.088 27.2 169.192 26.64C170.312 26.064 171.576 25.776 172.984 25.776C174.392 25.776 175.656 26.064 176.776 26.64C177.896 27.2 178.768 27.992 179.392 29.016C180.016 30.024 180.328 31.176 180.328 32.472C180.328 33.768 180.016 34.928 179.392 35.952C178.768 36.976 177.896 37.776 176.776 38.352C175.656 38.928 174.392 39.216 172.984 39.216ZM172.984 35.592C173.784 35.592 174.44 35.32 174.952 34.776C175.464 34.216 175.72 33.448 175.72 32.472C175.72 31.512 175.464 30.76 174.952 30.216C174.44 29.672 173.784 29.4 172.984 29.4C172.184 29.4 171.528 29.672 171.016 30.216C170.504 30.76 170.248 31.512 170.248 32.472C170.248 33.448 170.504 34.216 171.016 34.776C171.528 35.32 172.184 35.592 172.984 35.592ZM182.441 21.192H187.001V39H182.441V21.192ZM203.644 25.992V39H199.3V37.608C198.82 38.136 198.244 38.536 197.572 38.808C196.9 39.08 196.188 39.216 195.436 39.216C193.756 39.216 192.412 38.72 191.404 37.728C190.412 36.736 189.916 35.248 189.916 33.264V25.992H194.476V32.52C194.476 33.496 194.66 34.208 195.028 34.656C195.396 35.104 195.932 35.328 196.636 35.328C197.356 35.328 197.94 35.08 198.388 34.584C198.852 34.072 199.084 33.296 199.084 32.256V25.992H203.644ZM215.557 38.472C215.173 38.712 214.701 38.896 214.141 39.024C213.597 39.152 213.013 39.216 212.389 39.216C210.693 39.216 209.389 38.8 208.477 37.968C207.565 37.136 207.109 35.896 207.109 34.248V29.88H205.213V26.472H207.109V23.088H211.669V26.472H214.645V29.88H211.669V34.2C211.669 34.664 211.789 35.032 212.029 35.304C212.285 35.56 212.621 35.688 213.037 35.688C213.565 35.688 214.029 35.552 214.429 35.28L215.557 38.472ZM217.316 25.992H221.876V39H217.316V25.992ZM219.596 24.552C218.764 24.552 218.092 24.32 217.58 23.856C217.068 23.392 216.812 22.816 216.812 22.128C216.812 21.44 217.068 20.864 217.58 20.4C218.092 19.936 218.764 19.704 219.596 19.704C220.428 19.704 221.1 19.928 221.612 20.376C222.124 20.808 222.38 21.368 222.38 22.056C222.38 22.776 222.124 23.376 221.612 23.856C221.1 24.32 220.428 24.552 219.596 24.552ZM231.367 39.216C229.975 39.216 228.719 38.928 227.599 38.352C226.479 37.776 225.599 36.976 224.959 35.952C224.335 34.928 224.023 33.768 224.023 32.472C224.023 31.192 224.335 30.04 224.959 29.016C225.599 27.992 226.471 27.2 227.575 26.64C228.695 26.064 229.959 25.776 231.367 25.776C232.775 25.776 234.039 26.064 235.159 26.64C236.279 27.2 237.151 27.992 237.775 29.016C238.399 30.024 238.711 31.176 238.711 32.472C238.711 33.768 238.399 34.928 237.775 35.952C237.151 36.976 236.279 37.776 235.159 38.352C234.039 38.928 232.775 39.216 231.367 39.216ZM231.367 35.592C232.167 35.592 232.823 35.32 233.335 34.776C233.847 34.216 234.103 33.448 234.103 32.472C234.103 31.512 233.847 30.76 233.335 30.216C232.823 29.672 232.167 29.4 231.367 29.4C230.567 29.4 229.911 29.672 229.399 30.216C228.887 30.76 228.631 31.512 228.631 32.472C228.631 33.448 228.887 34.216 229.399 34.776C229.911 35.32 230.567 35.592 231.367 35.592ZM249.295 25.776C250.911 25.776 252.207 26.256 253.183 27.216C254.175 28.176 254.671 29.624 254.671 31.56V39H250.111V32.304C250.111 30.528 249.399 29.64 247.975 29.64C247.191 29.64 246.559 29.896 246.079 30.408C245.615 30.92 245.383 31.688 245.383 32.712V39H240.823V25.992H245.167V27.408C245.679 26.88 246.287 26.48 246.991 26.208C247.695 25.92 248.463 25.776 249.295 25.776ZM262.262 39.216C261.174 39.216 260.102 39.096 259.046 38.856C257.99 38.6 257.142 38.272 256.502 37.872L257.87 34.752C258.462 35.12 259.166 35.416 259.982 35.64C260.798 35.848 261.606 35.952 262.406 35.952C263.142 35.952 263.662 35.88 263.966 35.736C264.286 35.576 264.446 35.352 264.446 35.064C264.446 34.776 264.254 34.576 263.87 34.464C263.502 34.336 262.91 34.216 262.094 34.104C261.054 33.976 260.166 33.808 259.43 33.6C258.71 33.392 258.086 33.008 257.558 32.448C257.03 31.888 256.766 31.104 256.766 30.096C256.766 29.264 257.014 28.528 257.51 27.888C258.006 27.232 258.726 26.72 259.67 26.352C260.63 25.968 261.774 25.776 263.102 25.776C264.046 25.776 264.982 25.872 265.91 26.064C266.838 26.256 267.614 26.528 268.238 26.88L266.87 29.976C265.718 29.336 264.47 29.016 263.126 29.016C262.406 29.016 261.878 29.104 261.542 29.28C261.206 29.44 261.038 29.656 261.038 29.928C261.038 30.232 261.222 30.448 261.59 30.576C261.958 30.688 262.566 30.808 263.414 30.936C264.486 31.096 265.374 31.28 266.078 31.488C266.782 31.696 267.39 32.08 267.902 32.64C268.43 33.184 268.694 33.952 268.694 34.944C268.694 35.76 268.446 36.496 267.95 37.152C267.454 37.792 266.718 38.296 265.742 38.664C264.782 39.032 263.622 39.216 262.262 39.216Z" fill="#58595B"/>
</svg>
